WWE FRIDAY NIGHT SMACKDOWN 18 11 2011 HDTV IN MKV FORMAT..Download**Enjoy**Seed


SCREENSHOTS:

 
http://img7.imageshack.us/img7/1811/vlcsnap2011112013h26m18.png
 
http://img846.imageshack.us/img846/6126/vlcsnap2011112013h26m29.png
 
http://img829.imageshack.us/img829/3640/vlcsnap2011112013h27m26.png
 
http://img832.imageshack.us/img832/3639/vlcsnap2011112013h27m58.png


DETAILS ARE:



Video
Format : AVC
Format/Info : Advanced Video Codec
Format profile : Main@L3.0
Format settings, CABAC : Yes
Format settings, ReFrames : 3 frames
Codec ID : 7
Duration : 1h 22mn
Bit rate : 772 Kbps
Width : 634 pixels
Height : 360 pixels
Display aspect ratio : 16:9
Frame rate mode : Constant
Frame rate : 29.970 fps
Color space : YUV
Chroma subsampling : 4:2:0
Bit depth : 8 bits
Scan type : Progressive
Bits/(Pixel*Frame) : 0.113
Stream size : 454 MiB (85%)

Audio
Format : AAC
Format/Info : Advanced Audio Codec
Format profile : LC
Codec ID : 10
Duration : 1h 22mn
Bit rate : 129 Kbps
Channel(s) : 2 channels
Channel positions : Front: L R
Sampling rate : 44.1 KHz
Compression mode : Lossy
Stream size : 75.6 MiB (14%)
